<svg width="38" height="39" viewBox="0 0 38 39" fill="none" xmlns="http://www.w3.org/2000/svg">
<path d="M10.6667 0.75C4.92292 0.75 0.25 5.42292 0.25 11.1667V27.8333C0.25 33.5771 4.92292 38.25 10.6667 38.25H27.3333C33.0771 38.25 37.75 33.5771 37.75 27.8333V11.1667C37.75 5.42292 33.0771 0.75 27.3333 0.75H10.6667ZM10.6667 4.91667H27.3333C30.7792 4.91667 33.5833 7.72083 33.5833 11.1667V27.8333C33.5833 31.2792 30.7792 34.0833 27.3333 34.0833H10.6667C7.22083 34.0833 4.41667 31.2792 4.41667 27.8333V11.1667C4.41667 7.72083 7.22083 4.91667 10.6667 4.91667ZM29.4167 7C28.8641 7 28.3342 7.21949 27.9435 7.61019C27.5528 8.0009 27.3333 8.5308 27.3333 9.08333C27.3333 9.63587 27.5528 10.1658 27.9435 10.5565C28.3342 10.9472 28.8641 11.1667 29.4167 11.1667C29.9692 11.1667 30.4991 10.9472 30.8898 10.5565C31.2805 10.1658 31.5 9.63587 31.5 9.08333C31.5 8.5308 31.2805 8.0009 30.8898 7.61019C30.4991 7.21949 29.9692 7 29.4167 7ZM19 9.08333C13.2562 9.08333 8.58333 13.7562 8.58333 19.5C8.58333 25.2437 13.2562 29.9167 19 29.9167C24.7437 29.9167 29.4167 25.2437 29.4167 19.5C29.4167 13.7562 24.7437 9.08333 19 9.08333ZM19 13.25C22.4458 13.25 25.25 16.0542 25.25 19.5C25.25 22.9458 22.4458 25.75 19 25.75C15.5542 25.75 12.75 22.9458 12.75 19.5C12.75 16.0542 15.5542 13.25 19 13.25Z" fill="#E6E8F4"/>
</svg>
