<svg width="38" height="39" viewBox="0 0 38 39" fill="none" xmlns="http://www.w3.org/2000/svg">
<path d="M4.41667 0.75C2.11458 0.75 0.25 2.61458 0.25 4.91667V34.0833C0.25 36.3854 2.11458 38.25 4.41667 38.25H33.5833C35.8854 38.25 37.75 36.3854 37.75 34.0833V4.91667C37.75 2.61458 35.8854 0.75 33.5833 0.75H4.41667ZM4.41667 4.91667H33.5833V34.0833H4.41667V4.91667ZM10.2069 7.65918C8.42145 7.65918 7.35042 8.73245 7.35042 10.1616C7.35042 11.5908 8.42158 12.66 10.0278 12.66C11.8132 12.66 12.8843 11.5908 12.8843 10.1616C12.8843 8.73245 11.8131 7.65918 10.2069 7.65918ZM7.49284 15.3333V29.9167H12.75V15.3333H7.49284ZM17.0876 15.3333V29.9167H22.3447V21.9455C22.3447 19.5726 24.0377 19.2314 24.5461 19.2314C25.0544 19.2314 26.4137 19.7413 26.4137 21.9455V29.9167H31.5V21.9455C31.5 17.3684 29.4661 15.3333 26.9224 15.3333C24.3786 15.3333 23.0218 16.1803 22.3447 17.3678V15.3333H17.0876Z" fill="#E6E8F4"/>
</svg>
